<svg xmlns="http://www.w3.org/2000/svg" viewBox="0 0 663.4 321.12"><defs><style>.cls-1{fill:none;}.cls-2{fill:#d61f28;}.cls-3{fill:#243e8f;}</style></defs><g id="Layer_2" data-name="Layer 2"><g id="Layer_1-2" data-name="Layer 1"><path class="cls-1" d="M300.74,114.93a28.26,28.26,0,0,0-1.57-5.65q-1.57-4.65-1.86-4.65-.72,0-6.22-16.52T279.72,56q-19,55.07-29.32,83.53,2.72,0,5.86-.28h.86a28.76,28.76,0,0,1,3,.14,2.11,2.11,0,0,0,.58.14h17.88q3,0,7.43.14t6,.15q3.15,0,7.22-.15c2.72-.09,4.41-.14,5.08-.14h5a142,142,0,0,0-5.44-16.59Q300.74,115.08,300.74,114.93Z"/><path class="cls-2" d="M434.89,29.51Q399.67,0,340.63,0q-5.47,0-24.56.44Q303.94.71,294,.82V5.16h22v.29c1.26,0,2.58,0,4,0q34.92,0,57.49,12.05t36.77,38.21q5.19,9.78,9.1,24.91t3.93,25.93q0,49.68-30.63,82.11c-12.52,13.25-43.05,22-60.09,27.14l1.47,4.34,1.2,3.61.46,1.45c36.9-5.44,62.54-6.22,94.69-31.28,25.29-19.72,35.66-50.26,35.66-86.2Q470.11,59,434.89,29.51Z"/><path class="cls-1" d="M300.74,114.93a28.26,28.26,0,0,0-1.57-5.65q-1.57-4.65-1.86-4.65-.72,0-6.22-16.52T279.72,56q-19,55.07-29.32,83.53,2.72,0,5.86-.28h.86a28.76,28.76,0,0,1,3,.14,2.11,2.11,0,0,0,.58.14h17.88q3,0,7.43.14t6,.15q3.15,0,7.22-.15c2.72-.09,4.41-.14,5.08-.14h5a142,142,0,0,0-5.44-16.59Q300.74,115.08,300.74,114.93Z"/><path class="cls-1" d="M300.74,114.93a28.26,28.26,0,0,0-1.57-5.65q-1.57-4.65-1.86-4.65-.72,0-6.22-16.52T279.72,56q-19,55.07-29.32,83.53,2.72,0,5.86-.28h.86a28.76,28.76,0,0,1,3,.14,2.11,2.11,0,0,0,.58.14h17.88q3,0,7.43.14t6,.15q3.15,0,7.22-.15c2.72-.09,4.41-.14,5.08-.14h5a142,142,0,0,0-5.44-16.59Q300.74,115.08,300.74,114.93Z"/><path class="cls-1" d="M280.58,145.54q-7.44-.14-14.88-.14H253.11c-.38,0-1.07,0-2.07.14s-1.88.14-2.65.14h33.9C282.1,145.68,281.53,145.64,280.58,145.54Z"/><path class="cls-1" d="M320.05,168.85q-5.3-14.58-8.43-23.17l28.12,79.43C337.48,217.74,326.7,187.26,320.05,168.85Z"/><polygon class="cls-3" points="339.76 225.16 339.76 225.16 339.76 225.16 339.76 225.16"/><polygon class="cls-3" points="231.75 194.17 231.75 194.16 231.5 194.09 231.75 194.17"/><path class="cls-3" d="M376.66,219.72c-1.41-3.44-6.13-20.38-7.69-24.69q-1.43-4.16-2.29-6.3Q355.1,157,344.8,131.23a20.64,20.64,0,0,0-1-2.57q-1.73-4.57-29.75-78.81L295.6.93h-2.72q-1.15,4.72-15.45,45.27t-26.17,75.74c-.39,1.24-1.29,3.91-2.72,8q-8.86,26.33-16.59,47.92-1.44,4-3.87,11s-2.33,6.69-2.38,6.83a18,18,0,0,1,3.51,4.94l19.18-55c.77,0,1.65,0,2.65-.14s1.69-.14,2.07-.14H265.7q7.44,0,14.88.14c.95.1,1.52.14,1.71.14h29.33q3.13,8.58,8.43,23.17c6.65,18.41,17.43,48.89,19.69,56.26M250.4,139.53,279.72,56l29.61,83.53Z"/><path class="cls-2" d="M238.27,194a18.4,18.4,0,1,0,3.51,4.94A18.41,18.41,0,0,0,238.27,194Z"/><path class="cls-3" d="M42.92,307.78H15.75L10.4,320.35H0L24.45,266h9.93L58.9,320.35H48.35Zm-3.34-7.92L29.34,276.11,19.17,299.86Z"/><path class="cls-3" d="M113.62,266v54.33h-8.31L75.36,283.56v36.79h-10V266h8.3l30,36.79V266Z"/><path class="cls-3" d="M151.18,301.18v19.17H141.09v-19L119.75,266h10.79l15.91,26.47L162.51,266h9.93Z"/><path class="cls-3" d="M177.8,266h23.75c17.62,0,29.64,10.87,29.64,27.17s-12,27.16-29.64,27.16H177.8Zm23.28,45.79c12.11,0,19.95-7.37,19.95-18.62s-7.84-18.63-19.95-18.63H187.89v37.25Z"/><path class="cls-3" d="M275.9,307.78H248.74l-5.36,12.57H233L257.43,266h9.93l24.53,54.33H281.33Zm-3.34-7.92-10.24-23.75-10.17,23.75Z"/><path class="cls-3" d="M318.51,301.18v19.17H308.42v-19L287.08,266h10.78l15.91,26.47L329.84,266h9.93Z"/><path class="cls-3" d="M416.76,320.35l-.08-36-17.85,29.8h-4.5L376.48,284.8v35.55h-9.62V266h8.3l21.57,36,21.19-36h8.3l.08,54.33Z"/><path class="cls-3" d="M436.63,293.19c0-16.07,12.41-27.94,29.25-27.94s29.26,11.79,29.26,27.94-12.42,27.93-29.26,27.93S436.63,309.25,436.63,293.19Zm48.34,0c0-11.1-8.14-19.09-19.09-19.09s-19.09,8-19.09,19.09,8.15,19.09,19.09,19.09S485,304.28,485,293.19Z"/><path class="cls-3" d="M553.66,266v54.33h-8.31l-30-36.79v36.79h-10V266h8.3l30,36.79V266Z"/><path class="cls-3" d="M608.53,311.89v8.46H567.78V266h39.66v8.46H577.87v14.13H604.1v8.3H577.87v15Z"/><path class="cls-3" d="M642.13,301.18v19.17H632v-19L610.7,266h10.79l15.91,26.47L653.46,266h9.94Z"/></g></g></svg>