<svg xmlns="http://www.w3.org/2000/svg" viewBox="0 0 605.83 285.58"><defs><style>.cls-1{fill:#243f8f;}.cls-2{fill:#d61f28;}.cls-3{fill:#243e8f;}</style></defs><g id="Layer_2" data-name="Layer 2"><g id="Layer_1-2" data-name="Layer 1"><rect class="cls-1" x="137.84" y="99.96" width="208.41" height="4" transform="translate(66.81 297.61) rotate(-70.99)"/><path class="cls-2" d="M393,20C377.39,6.13,358,0,332.26,0,316,0,288.09,3,276,3.45l3.54,12.09c1.57-.79,32.34-2.33,36.2-2.33,12.73,0,26.34,2.9,36.75,11.28C371.29,39.31,381.41,69,381.41,98.6c0,32.86-6.37,51.55-16.49,67-9.55,13.21-12.48,18.66-24.05,18.66-3.6,0-16.6-1.31-23.41-5.09l.52,20.93h1.49c31.24,0,51.56-.39,74.13-22,17.36-16.76,28.93-50.24,28.93-84.4,0-29-10.42-56.38-29.51-73.78"/><path class="cls-2" d="M219.87,188a18.29,18.29,0,1,1-18.28-18.29A18.29,18.29,0,0,1,219.87,188"/><path class="cls-3" d="M373.47,194.79C349,190.87,340.56,184.06,329.79,157c-11.11-29.06-36.9-103.18-48.33-134.85L276,3.45,252.33,74.13c5.18,15.33,10.38,31.26,12.48,37.77,0,.66-.66,1.63-1,1.63-3.27.33-11.1.33-21.88.33H239l-6.34,19,11.22,0c8.49,0,19.59-.32,24.81,0,1.31,0,2.62,1.64,3.27,2.29,4.57,11.43,12.41,34,15,44.74.33,1,.33,4.24-3.27,6.2-2.94,2-9.47,3.26-16,4.57-1,1.3-.65,9.14,0,11.1,12.4,0,22.53-1.34,49.95-1,26.14.35,40.37-2.45,48.39-4.11,2.42-.43,3.7-.85,7.38-1.81"/><path class="cls-3" d="M39.2,273.39H14.39L9.5,284.87H0l22.33-49.61H31.4l22.4,49.61H44.16Zm-3.05-7.23-9.36-21.69-9.28,21.69Z"/><path class="cls-3" d="M103.76,235.26v49.61H96.18l-27.36-33.6v33.6H59.68V235.26h7.58l27.36,33.59V235.26Z"/><path class="cls-3" d="M138.06,267.36v17.51h-9.21V267.5l-19.49-32.24h9.85l14.53,24.16,14.67-24.16h9.07Z"/><path class="cls-3" d="M162.37,235.26h21.69c16.09,0,27.08,9.92,27.08,24.8s-11,24.81-27.08,24.81H162.37Zm21.27,41.81c11.05,0,18.21-6.73,18.21-17s-7.16-17-18.21-17h-12v34Z"/><path class="cls-3" d="M252,273.39H227.15l-4.89,11.48h-9.5l22.33-49.61h9.07l22.4,49.61h-9.64Zm-3.05-7.23-9.35-21.69-9.29,21.69Z"/><path class="cls-3" d="M290.87,267.36v17.51h-9.21V267.5l-19.5-32.24H272l14.53,24.16,14.67-24.16h9.07Z"/><path class="cls-3" d="M380.6,284.87,380.53,252,364.22,279.2h-4.11l-16.3-26.79v32.46H335V235.26h7.59l19.7,32.88,19.35-32.88h7.58l.07,49.61Z"/><path class="cls-3" d="M398.74,260.06c0-14.67,11.34-25.51,26.72-25.51s26.72,10.77,26.72,25.51-11.34,25.52-26.72,25.52S398.74,274.73,398.74,260.06Zm44.15,0c0-10.13-7.44-17.43-17.43-17.43S408,249.93,408,260.06s7.44,17.44,17.44,17.44S442.89,270.2,442.89,260.06Z"/><path class="cls-3" d="M505.62,235.26v49.61H498l-27.36-33.6v33.6h-9.14V235.26h7.58l27.36,33.59V235.26Z"/><path class="cls-3" d="M555.72,277.14v7.73H518.51V235.26h36.22V243h-27v12.9h23.95v7.58H527.73v13.68Z"/><path class="cls-3" d="M586.41,267.36v17.51H577.2V267.5l-19.49-32.24h9.85l14.53,24.16,14.67-24.16h9.07Z"/></g></g></svg>